# This file uses centimeters as units for non-parametric coordinates.

mtllib Puerta_02.mtl
g Puerta:default1
v 30.455471 1.647731 -104.229202
v 79.666542 0.462291 -108.380074
v 32.822723 100.619217 -104.430649
v 82.033859 99.433739 -108.581451
v 32.738670 100.619202 -105.427109
v 81.949745 99.433701 -109.577980
v 30.371420 1.647713 -105.225662
v 79.582497 0.462285 -109.376534
v 33.260155 4.100644 -104.465820
v 77.119453 2.974503 -108.165268
v 79.229172 96.980843 -108.344818
v 35.369839 98.106934 -104.645454
v 33.217564 4.100634 -104.971054
v 77.076851 2.974505 -108.670387
v 79.186531 96.980835 -108.850021
v 35.327232 98.106926 -105.150574
v 36.460659 49.324535 -104.761009
v 39.526180 49.324535 -104.976982
v 36.460659 57.290279 -104.761009
v 39.526180 57.290279 -104.976982
v 36.425922 57.290279 -105.254066
v 39.491444 57.290279 -105.470039
v 36.425922 49.324535 -105.254066
v 39.491444 49.324535 -105.470039
v 37.561848 53.383884 -101.731262
v 38.668106 53.383884 -101.802795
v 37.561848 54.236073 -101.731262
v 38.668106 54.236073 -101.802795
v 37.332859 54.236073 -104.787872
v 38.439125 54.236073 -104.859406
v 37.332859 53.383884 -104.787872
v 38.439125 53.383884 -104.859406
v 37.495628 54.236073 -102.755219
v 37.495628 53.383884 -102.755219
v 38.601891 53.383884 -102.826759
v 38.601891 54.236073 -102.826759
v 42.218758 53.383884 -102.981544
v 42.284973 53.383884 -101.957573
v 42.218758 54.236073 -102.981544
v 42.284973 54.236073 -101.957573
vt 0.070051 0.222585
vt 0.418510 0.222118
vt 0.417408 0.854277
vt 0.068949 0.854744
vt 0.043616 0.898720
vt 0.463264 0.898720
vt 0.463264 0.907189
vt 0.043616 0.907189
vt 0.989445 0.867108
vt 0.537089 0.867108
vt 0.537089 0.237197
vt 0.989445 0.237197
vt 0.481264 0.144342
vt 0.014891 0.144342
vt 0.014891 0.117183
vt 0.481264 0.117183
vt 0.502782 0.184168
vt 0.523872 0.184168
vt 0.523872 0.908066
vt 0.502780 0.908066
vt 0.001999 0.171775
vt 0.012474 0.171775
vt 0.012474 0.888335
vt 0.001999 0.888335
vt 0.027987 0.160121
vt 0.456981 0.160121
vt 0.434266 0.181986
vt 0.051911 0.182607
vt 0.491032 0.194276
vt 0.491032 0.875584
vt 0.463873 0.858244
vt 0.465246 0.211138
vt 0.456669 0.886515
vt 0.046366 0.886515
vt 0.068091 0.873736
vt 0.433787 0.873373
vt 0.019279 0.882618
vt 0.019279 0.182620
vt 0.041765 0.200436
vt 0.040628 0.865293
vt 0.070961 0.195498
vt 0.425194 0.195497
vt 0.425194 0.208635
vt 0.070961 0.208639
vt 0.458262 0.202175
vt 0.458265 0.862092
vt 0.436703 0.862092
vt 0.436703 0.202175
vt 0.088832 0.865633
vt 0.410358 0.865632
vt 0.410358 0.859774
vt 0.088832 0.859774
vt 0.046406 0.840566
vt 0.046406 0.224672
vt 0.051898 0.224672
vt 0.051897 0.840566
vt 0.573847 0.194356
vt 0.571671 0.043389
vt 0.973984 0.037591
vt 0.976159 0.188558
vt 0.975384 0.189613
vt 0.973208 0.038646
vt 0.996373 0.038312
vt 0.998548 0.189279
vt 0.759314 0.195785
vt 0.757462 0.067231
vt 0.886015 0.065378
vt 0.887868 0.193932
vt 0.567308 0.040872
vt 0.569484 0.191839
vt 0.542059 0.192234
vt 0.539884 0.041267
vt 0.571504 0.036368
vt 0.571354 0.025984
vt 0.969585 0.020244
vt 0.969735 0.030628
vt 0.580368 0.203333
vt 0.580223 0.193242
vt 0.969754 0.187628
vt 0.969900 0.197719
vt 0.825239 0.926138
vt 0.838968 0.926138
vt 0.838968 0.938427
vt 0.825239 0.938427
vt 0.824940 0.940745
vt 0.838579 0.940745
vt 0.838579 0.956080
vt 0.824940 0.956080
vt 0.786087 0.941001
vt 0.770906 0.941001
vt 0.770906 0.925821
vt 0.786087 0.925821
vt 0.825375 0.907455
vt 0.839013 0.907584
vt 0.838780 0.922379
vt 0.825142 0.922250
vt 0.886134 0.925525
vt 0.895536 0.925525
vt 0.895536 0.937045
vt 0.886134 0.937045
vt 0.809058 0.925119
vt 0.824236 0.925119
vt 0.824236 0.939445
vt 0.809058 0.939445
vt 0.778901 0.925119
vt 0.778901 0.939445
vt 0.825454 0.878053
vt 0.839093 0.878182
vt 0.734507 0.941208
vt 0.734507 0.925614
vt 0.766624 0.925614
vt 0.766624 0.941208
vt 0.838194 0.986553
vt 0.824555 0.986553
vt 0.883522 0.909143
vt 0.883289 0.923938
vt 0.945248 0.925766
vt 0.945248 0.938798
vt 0.898261 0.938798
vt 0.898261 0.925766
vt 0.883109 0.939565
vt 0.883109 0.954901
vt 0.883793 0.926138
vt 0.883793 0.938427
vn 0.084049 0.000017 0.996462
vn 0.084049 0.000017 0.996462
vn 0.084049 0.000017 0.996462
vn 0.084049 0.000017 0.996462
vn 0.023910 0.999712 -0.002047
vn 0.023910 0.999712 -0.002047
vn 0.023910 0.999712 -0.002047
vn 0.023910 0.999712 -0.002047
vn -0.084050 -0.000018 -0.996462
vn -0.084050 -0.000018 -0.996462
vn -0.084050 -0.000018 -0.996462
vn -0.084050 -0.000018 -0.996462
vn -0.023911 -0.999712 0.002029
vn -0.023911 -0.999712 0.002029
vn -0.023911 -0.999712 0.002029
vn -0.023911 -0.999712 0.002029
vn 0.996172 -0.023998 -0.084055
vn 0.996172 -0.023998 -0.084055
vn 0.996172 -0.023998 -0.084055
vn 0.996172 -0.023998 -0.084055
vn -0.996175 0.023998 0.084026
vn -0.996175 0.023998 0.084026
vn -0.996175 0.023998 0.084026
vn -0.996175 0.023998 0.084026
vn 0.084053 0.000018 0.996461
vn 0.084055 0.000017 0.996461
vn 0.084054 0.000017 0.996461
vn 0.084052 0.000018 0.996461
vn 0.084055 0.000017 0.996461
vn 0.084055 0.000018 0.996461
vn 0.084053 0.000018 0.996461
vn 0.084054 0.000017 0.996461
vn 0.084055 0.000018 0.996461
vn 0.084052 0.000018 0.996461
vn 0.084051 0.000019 0.996462
vn 0.084053 0.000018 0.996461
vn 0.084052 0.000018 0.996461
vn 0.084053 0.000018 0.996461
vn 0.084052 0.000018 0.996461
vn 0.084051 0.000019 0.996462
vn 0.025486 0.999673 -0.002158
vn 0.025486 0.999673 -0.002158
vn 0.025486 0.999673 -0.002158
vn 0.025486 0.999673 -0.002158
vn -0.996207 0.022518 0.084052
vn -0.996207 0.022518 0.084052
vn -0.996207 0.022518 0.084052
vn -0.996207 0.022518 0.084052
vn -0.025484 -0.999673 0.002171
vn -0.025484 -0.999673 0.002171
vn -0.025484 -0.999673 0.002171
vn -0.025484 -0.999673 0.002171
vn 0.996211 -0.022517 -0.084005
vn 0.996211 -0.022517 -0.084005
vn 0.996211 -0.022517 -0.084005
vn 0.996211 -0.022517 -0.084005
vn 0.070279 0.000000 0.997527
vn 0.070279 0.000000 0.997527
vn 0.070279 0.000000 0.997527
vn 0.070279 0.000000 0.997527
vn 0.000000 1.000000 0.000000
vn 0.000000 1.000000 0.000000
vn 0.000000 1.000000 0.000000
vn 0.000000 1.000000 0.000000
vn -0.070279 0.000000 -0.997527
vn -0.070279 0.000000 -0.997527
vn -0.070279 0.000000 -0.997527
vn -0.070279 0.000000 -0.997527
vn 0.000000 -1.000000 0.000000
vn 0.000000 -1.000000 0.000000
vn 0.000000 -1.000000 0.000000
vn 0.000000 -1.000000 0.000000
vn 0.997527 0.000000 -0.070279
vn 0.997527 0.000000 -0.070279
vn 0.997527 0.000000 -0.070279
vn 0.997527 0.000000 -0.070279
vn -0.997527 0.000000 0.070279
vn -0.997527 0.000000 0.070279
vn -0.997527 0.000000 0.070279
vn -0.997527 0.000000 0.070279
vn 0.064532 0.000000 0.997916
vn 0.047861 0.000000 0.998854
vn 0.047861 0.000000 0.998854
vn 0.064532 0.000000 0.997916
vn 0.000000 1.000000 0.000000
vn 0.000000 1.000000 0.000000
vn 0.000000 1.000000 0.000000
vn 0.000000 1.000000 0.000000
vn -0.064532 0.000000 -0.997916
vn -0.064532 0.000000 -0.997916
vn -0.064532 0.000000 -0.997916
vn -0.064532 0.000000 -0.997916
vn 0.000000 -1.000000 0.000000
vn 0.000000 -1.000000 0.000000
vn 0.000000 -1.000000 0.000000
vn 0.000000 -1.000000 0.000000
vn 0.997916 0.000000 -0.064532
vn 0.997916 0.000000 -0.064532
vn 0.997916 0.000000 -0.064532
vn 0.997916 0.000000 -0.064532
vn -0.997206 0.000000 0.074706
vn -0.997916 0.000000 0.064532
vn -0.997916 0.000000 0.064532
vn -0.997206 0.000000 0.074706
vn -0.996809 0.000000 0.079823
vn -0.997206 0.000000 0.074706
vn -0.997206 0.000000 0.074706
vn -0.996809 0.000000 0.079823
vn 0.000000 -1.000000 0.000000
vn 0.000000 -1.000000 0.000000
vn 0.000000 -1.000000 0.000000
vn 0.000000 -1.000000 0.000000
vn 0.996809 0.000000 -0.079820
vn 0.996809 0.000000 -0.079820
vn 0.996809 0.000000 -0.079820
vn 0.996809 0.000000 -0.079820
vn 0.000000 1.000000 0.000000
vn 0.000000 1.000000 0.000000
vn 0.000000 1.000000 0.000000
vn 0.000000 1.000000 0.000000
vn 0.000000 -1.000000 0.000000
vn 0.000000 -1.000000 0.000000
vn 0.000000 -1.000000 0.000000
vn 0.000000 -1.000000 0.000000
vn -0.042756 0.000000 -0.999086
vn -0.042756 0.000000 -0.999086
vn -0.042756 0.000000 -0.999086
vn -0.042756 0.000000 -0.999086
vn 0.000000 1.000000 0.000000
vn 0.000000 1.000000 0.000000
vn 0.000000 1.000000 0.000000
vn 0.000000 1.000000 0.000000
vn 0.047861 0.000000 0.998854
vn 0.047861 0.000000 0.998854
vn 0.042754 0.000000 0.999086
vn 0.042754 0.000000 0.999086
s off
g Puerta:Cuarto Puerta:puerta polySurface1
usemtl initialShadingGroup
f 13/1/1 14/2/2 15/3/3 16/4/4
f 3/5/5 4/6/6 6/7/7 5/8/8
f 5/9/9 6/10/10 8/11/11 7/12/12
f 7/13/13 8/14/14 2/15/15 1/16/16
f 2/17/17 8/18/18 6/19/19 4/20/20
f 7/21/21 1/22/22 3/23/23 5/24/24
f 1/25/25 2/26/26 10/27/27 9/28/28
f 2/29/29 4/30/30 11/31/31 10/32/32
f 4/33/33 3/34/34 12/35/35 11/36/36
f 3/37/37 1/38/38 9/39/39 12/40/40
f 9/41/41 10/42/42 14/43/43 13/44/44
f 10/45/45 11/46/46 15/47/47 14/48/48
f 11/49/49 12/50/50 16/51/51 15/52/52
f 12/53/53 9/54/54 13/55/55 16/56/56
f 17/57/57 18/58/58 20/59/59 19/60/60
f 19/61/61 20/62/62 22/63/63 21/64/64
f 21/65/65 22/66/66 24/67/67 23/68/68
f 23/69/69 24/70/70 18/71/71 17/72/72
f 18/73/73 24/74/74 22/75/75 20/76/76
f 23/77/77 17/78/78 19/79/79 21/80/80
f 25/81/81 26/82/82 28/83/83 27/84/84
f 27/85/85 28/86/86 36/87/87 33/88/88
f 29/89/89 30/90/90 32/91/91 31/92/92
f 34/93/93 35/94/94 26/95/95 25/96/96
f 38/97/97 37/98/98 39/99/99 40/100/100
f 34/101/101 25/102/102 27/103/103 33/104/104
f 31/105/105 34/101/106 33/104/107 29/106/108
f 31/107/109 32/108/110 35/94/111 34/93/112
f 36/109/113 35/110/114 32/111/115 30/112/116
f 33/88/117 36/87/118 30/113/119 29/114/120
f 26/95/121 35/94/122 37/115/123 38/116/124
f 35/117/125 36/118/126 39/119/127 37/120/128
f 36/87/129 28/86/130 40/121/131 39/122/132
f 28/83/133 26/82/134 38/123/135 40/124/136
