# This file uses centimeters as units for non-parametric coordinates.

mtllib TablaUV.mtl
g default
v -2.655072 -0.231173 1.930306
v 2.655072 -0.231173 1.930306
v -2.655072 0.231173 1.930306
v 2.655072 0.231173 1.930306
v -2.655072 0.231173 -1.930306
v 2.655072 0.231173 -1.930306
v -2.655072 -0.231173 -1.930306
v 2.655072 -0.231173 -1.930306
v -2.612094 0.191194 -0.728743
v -2.644835 -0.191195 -0.728743
v 2.644835 -0.191195 -0.728743
v 2.612094 0.191194 -0.728743
v -2.612698 0.188871 0.630551
v -2.612698 -0.188871 0.630551
v 2.612698 -0.188871 0.630551
v 2.612698 0.188871 0.630551
v -2.655072 0.231173 0.505325
v -2.655072 -0.231173 0.505325
v 2.655072 -0.231173 0.505325
v 2.655072 0.231173 0.505325
v -2.655072 0.231173 0.749796
v -2.655072 -0.231173 0.749796
v 2.655072 -0.231173 0.749796
v 2.655072 0.231173 0.749796
v -2.655072 0.231173 -0.592854
v -2.655072 -0.231173 -0.592854
v 2.655072 -0.231173 -0.592854
v 2.655072 0.231173 -0.592854
v -2.655072 0.231173 -0.840776
v -2.655072 -0.231173 -0.840776
v 2.655072 -0.231173 -0.840776
v 2.655072 0.231173 -0.840776
vt 0.440818 0.433583
vt 0.602855 0.433583
vt 0.602855 0.566417
vt 0.440818 0.566417
vt 0.619223 0.445736
vt 0.619223 0.554264
vt 0.636412 0.433583
vt 0.636412 0.566417
vt 0.787148 0.433583
vt 0.787148 0.566417
vt 0.805800 0.445069
vt 0.805800 0.554931
vt 0.821178 0.433583
vt 0.821178 0.566417
vt 0.970727 0.433583
vt 0.970727 0.566417
vt 0.611496 0.229731
vt 0.451569 0.229756
vt 0.451896 0.364981
vt 0.611823 0.364955
vt 0.826975 0.229696
vt 0.811826 0.241391
vt 0.812097 0.353230
vt 0.827303 0.364920
vt 0.644615 0.229725
vt 0.627680 0.242100
vt 0.627948 0.352580
vt 0.644942 0.364950
vt 0.793389 0.229701
vt 0.793716 0.364926
vt 0.974577 0.229672
vt 0.974904 0.364897
vt 0.102900 0.620728
vt 0.427623 0.620728
vt 0.427623 0.720023
vt 0.102900 0.720023
vt 0.525019 0.709726
vt 0.846902 0.709726
vt 0.846902 0.611299
vt 0.525019 0.611299
vt 0.525019 0.842341
vt 0.846902 0.842341
vt 0.846281 0.833001
vt 0.525639 0.833001
vt 0.105528 0.844386
vt 0.424994 0.844386
vt 0.427623 0.853809
vt 0.102900 0.853809
vt 0.525019 0.730109
vt 0.846902 0.730109
vt 0.844333 0.719668
vt 0.527588 0.719668
vt 0.105491 0.730053
vt 0.425031 0.730053
vt 0.427623 0.740586
vt 0.102900 0.740586
vt 0.036065 0.029883
vt 0.455497 0.029883
vt 0.455497 0.107244
vt 0.036065 0.107244
vt 0.444030 0.207520
vt 0.033179 0.202677
vt 0.034021 0.131273
vt 0.444871 0.136116
vt 0.525019 0.821671
vt 0.846902 0.821671
vt 0.525019 0.933182
vt 0.846902 0.933182
vt 0.427623 0.832956
vt 0.102900 0.832956
vt 0.427623 0.945452
vt 0.102900 0.945452
vn 0.000000 0.000000 1.000000
vn 0.000000 0.000000 1.000000
vn 0.000000 0.000000 1.000000
vn 0.000000 0.000000 1.000000
vn 0.000000 1.000000 0.000000
vn 0.000000 1.000000 0.000000
vn 0.000000 0.999658 -0.026144
vn 0.000000 0.999658 -0.026144
vn 0.000000 0.000000 -1.000000
vn 0.000000 0.000000 -1.000000
vn 0.000000 0.000000 -1.000000
vn 0.000000 0.000000 -1.000000
vn 0.000000 -0.999658 -0.026144
vn 0.000000 -0.999658 -0.026144
vn 0.000000 -1.000000 0.000000
vn 0.000000 -1.000000 0.000000
vn 1.000000 0.000000 0.000000
vn 0.999709 0.000000 -0.024145
vn 0.999708 0.000000 -0.024145
vn 1.000000 0.000000 0.000000
vn -0.999709 0.000000 -0.024145
vn -1.000000 0.000000 0.000000
vn -1.000000 0.000000 0.000000
vn -0.999708 0.000000 -0.024145
vn -0.999864 0.002654 0.016262
vn -0.999244 0.038730 0.003251
vn -0.999247 0.038730 0.002520
vn -0.999860 0.002693 0.016506
vn 0.000000 -0.999502 0.031543
vn 0.000000 -0.999502 0.031543
vn 0.000000 -0.999999 0.001340
vn 0.000000 -0.999999 0.001340
vn 0.999247 0.038730 0.002520
vn 0.999244 0.038730 0.003251
vn 0.999864 0.002653 0.016262
vn 0.999860 0.002693 0.016506
vn 0.000000 0.999990 0.004450
vn 0.000000 0.999990 0.004450
vn 0.000000 0.999655 0.026266
vn 0.000000 0.999655 0.026266
vn -0.999663 0.000000 0.025975
vn -0.999999 0.000000 -0.001186
vn -0.999999 0.000000 -0.001186
vn -0.999663 0.000000 0.025975
vn 0.000000 -0.999605 0.028102
vn 0.000000 -0.999605 0.028102
vn 0.000000 -0.999999 -0.001185
vn 0.000000 -0.999999 -0.001185
vn 0.999999 0.000000 -0.001186
vn 0.999999 0.000000 -0.001186
vn 0.999663 0.000000 0.025975
vn 0.999663 0.000000 0.025975
vn 0.000000 0.999999 -0.001186
vn 0.000000 0.999999 -0.001186
vn 0.000000 0.999605 0.028102
vn 0.000000 0.999605 0.028102
vn -0.999857 0.003281 -0.016577
vn -0.999855 0.003309 -0.016717
vn 0.000000 -0.999520 -0.030996
vn 0.000000 -0.999520 -0.030996
vn 0.999857 0.003281 -0.016577
vn 0.999855 0.003309 -0.016717
vn 0.000000 0.999644 -0.026668
vn 0.000000 0.999644 -0.026668
vn -1.000000 -0.000000 0.000000
vn -1.000000 -0.000000 0.000000
vn 0.000000 -1.000000 0.000000
vn 0.000000 -1.000000 0.000000
vn 1.000000 -0.000000 0.000000
vn 1.000000 -0.000000 0.000000
vn 0.000000 1.000000 0.000000
vn 0.000000 1.000000 0.000000
s off
g Tabla
usemtl initialShadingGroup
f 1/57/1 2/58/2 4/59/3 3/60/4
s 1
f 3/33/5 4/34/6 24/35/7 21/36/8
s off
f 5/61/9 6/62/10 8/63/11 7/64/12
s 2
f 22/37/13 23/38/14 2/39/15 1/40/16
s 3
f 2/1/17 23/2/18 24/3/19 4/4/20
s 4
f 22/17/21 1/18/22 3/19/23 21/20/24
f 30/21/25 10/22/26 9/23/27 29/24/28
s 2
f 30/41/29 31/42/30 11/43/31 10/44/32
s 3
f 12/12/33 11/11/34 31/13/35 32/14/36
s 1
f 9/45/37 12/46/38 32/47/39 29/48/40
s 4
f 18/25/41 14/26/42 13/27/43 17/28/44
s 2
f 18/49/45 19/50/46 15/51/47 14/52/48
s 3
f 16/6/49 15/5/50 19/7/51 20/8/52
s 1
f 13/53/53 16/54/54 20/55/55 17/56/56
s 4
f 26/29/57 18/25/41 17/28/44 25/30/58
s 2
f 26/65/59 27/66/60 19/50/46 18/49/45
s 3
f 20/8/52 19/7/51 27/9/61 28/10/62
s 1
f 17/56/56 20/55/55 28/69/63 25/70/64
s 4
f 14/26/42 22/17/21 21/20/24 13/27/43
s 2
f 14/52/48 15/51/47 23/38/14 22/37/13
s 3
f 24/3/19 23/2/18 15/5/50 16/6/49
s 1
f 21/36/8 24/35/7 16/54/54 13/53/53
s 4
f 10/22/26 26/29/57 25/30/58 9/23/27
s 2
f 10/44/32 11/43/31 27/66/60 26/65/59
s 3
f 28/10/62 27/9/61 11/11/34 12/12/33
s 1
f 25/70/64 28/69/63 12/46/38 9/45/37
s 4
f 7/31/65 30/21/25 29/24/28 5/32/66
s 2
f 7/67/67 8/68/68 31/42/30 30/41/29
s 3
f 32/14/36 31/13/35 8/15/69 6/16/70
s 1
f 29/48/40 32/47/39 6/71/71 5/72/72
