# This file uses centimeters as units for non-parametric coordinates.

mtllib CuadroUV_Corregido.mtl
g CuadroUV__1_:default1
v 19.098688 52.309696 167.995102
v 38.403507 52.309696 167.995102
v 19.098688 81.291260 167.995102
v 38.403507 81.291260 167.995102
v 19.098688 81.291260 167.349823
v 38.403507 81.291260 167.349823
v 19.098688 52.309696 167.349823
v 38.403507 52.309696 167.349823
v 38.403507 53.136345 167.349823
v 19.098688 53.136345 167.349823
v 19.098688 53.136345 167.995102
v 38.403507 53.136345 167.995102
v 38.403507 80.284012 167.349823
v 19.098688 80.284012 167.349823
v 19.098688 80.284012 167.995102
v 38.403507 80.284012 167.995102
v 37.719158 81.291260 167.349823
v 37.719158 80.284012 167.773743
v 37.719158 53.136345 167.773743
v 37.719158 52.309696 167.349823
v 37.719158 52.309696 167.995102
v 37.719158 53.136345 167.995102
v 37.719158 80.284012 167.995102
v 37.719158 81.291260 167.995102
v 19.743937 81.291260 167.349823
v 19.743937 80.284012 167.773743
v 19.743937 53.136345 167.773743
v 19.743937 52.309696 167.349823
v 19.743937 52.309696 167.995102
v 19.743937 53.136345 167.995102
v 19.743937 80.284012 167.995102
v 19.743937 81.291260 167.995102
v 19.098688 81.291260 166.197281
v 19.743937 81.291260 166.197281
v 19.743937 80.284012 166.197281
v 19.098688 80.284012 166.197281
v 19.743937 53.136345 166.197281
v 19.098688 53.136345 166.197281
v 19.743937 52.309696 166.197281
v 19.098688 52.309696 166.197281
v 37.719158 81.291260 166.197281
v 38.403507 81.291260 166.197281
v 38.403507 80.284012 166.197281
v 37.719158 80.284012 166.197281
v 37.719158 53.136345 166.197281
v 38.403507 53.136345 166.197281
v 37.719158 52.309696 166.197281
v 38.403507 52.309696 166.197281
vt 0.516514 0.760625
vt 0.531899 0.760636
vt 0.462206 0.809358
vt 0.517410 0.776939
vt 0.462377 0.798122
vt 0.473648 0.798231
vt 0.474140 0.778025
vt 0.462767 0.778022
vt 0.463205 0.760614
vt 0.474292 0.760614
vt 0.492514 0.274008
vt 0.461915 0.250127
vt 0.531899 0.274004
vt 0.516936 0.274011
vt 0.854738 0.760592
vt 0.100170 0.760594
vt 0.100004 0.779366
vt 0.119654 0.805929
vt 0.494051 0.760612
vt 0.472947 0.288101
vt 0.462035 0.288100
vt 0.461887 0.274008
vt 0.472897 0.274008
vt 0.516124 0.288099
vt 0.492570 0.288101
vt 0.531899 0.288096
vt 0.854738 0.273983
vt 0.120559 0.250061
vt 0.100277 0.288112
vt 0.854738 0.288075
vt 0.131633 0.779303
vt 0.119857 0.779319
vt 0.119868 0.760595
vt 0.131609 0.760595
vt 0.131360 0.288113
vt 0.119860 0.288113
vt 0.131805 0.274020
vt 0.120062 0.274020
vt 0.837217 0.273983
vt 0.132393 0.250063
vt 0.837217 0.288075
vt 0.837217 0.760592
vt 0.131534 0.806118
vt 0.131674 0.794924
vt 0.440393 0.739104
vt 0.441214 0.303994
vt 0.154011 0.304229
vt 0.152448 0.739073
vt 0.531899 0.776547
vt 0.837217 0.779534
vt 0.854738 0.779534
vt 0.089160 0.760594
vt 0.089290 0.288112
vt 0.100262 0.274019
vt 0.119833 0.794802
vt 0.473050 0.250130
vt 0.494333 0.778167
vt 0.462089 0.237072
vt 0.132581 0.237160
vt 0.089000 0.779417
vt 0.089273 0.274019
vt 0.120704 0.237162
vt 0.473484 0.809476
vt 0.473250 0.237067
vn 0.000000 0.000000 1.000000
vn 0.000000 0.000000 1.000000
vn 0.000000 0.000000 1.000000
vn 0.000000 0.000000 1.000000
vn 0.000000 1.000000 0.000000
vn 0.000000 1.000000 0.000000
vn 0.000000 1.000000 0.000000
vn 0.000000 1.000000 0.000000
vn 0.000000 0.000000 -1.000000
vn 0.000000 0.000000 -1.000000
vn 0.000000 0.000000 -1.000000
vn 0.000000 0.000000 -1.000000
vn 0.000000 -1.000000 0.000000
vn 0.000000 -1.000000 0.000000
vn 0.000000 -1.000000 0.000000
vn 0.000000 -1.000000 0.000000
vn 1.000000 0.000000 0.000000
vn 1.000000 0.000000 0.000000
vn 1.000000 0.000000 0.000000
vn 1.000000 0.000000 0.000000
vn -1.000000 0.000000 0.000000
vn -1.000000 0.000000 0.000000
vn -1.000000 0.000000 0.000000
vn -1.000000 0.000000 0.000000
vn 0.000000 0.000000 -1.000000
vn 0.000000 0.000000 -1.000000
vn 0.000000 0.000000 -1.000000
vn 0.000000 0.000000 -1.000000
vn -1.000000 0.000000 0.000000
vn -1.000000 0.000000 0.000000
vn -1.000000 0.000000 0.000000
vn -1.000000 0.000000 0.000000
vn 0.000000 0.000000 1.000000
vn 0.000000 0.000000 1.000000
vn 0.000000 0.000000 1.000000
vn 0.000000 0.000000 1.000000
vn 1.000000 0.000000 0.000000
vn 1.000000 0.000000 0.000000
vn 1.000000 0.000000 0.000000
vn 1.000000 0.000000 0.000000
vn 0.000000 0.000000 -1.000000
vn 0.000000 0.000000 -1.000000
vn 0.000000 0.000000 -1.000000
vn 0.000000 0.000000 -1.000000
vn -1.000000 0.000000 0.000000
vn -1.000000 0.000000 0.000000
vn -1.000000 0.000000 0.000000
vn -1.000000 0.000000 0.000000
vn 0.000000 0.000000 1.000000
vn 0.000000 0.000000 1.000000
vn 0.000000 0.000000 1.000000
vn 0.000000 0.000000 1.000000
vn 1.000000 0.000000 0.000000
vn 1.000000 0.000000 0.000000
vn 1.000000 0.000000 0.000000
vn 1.000000 0.000000 0.000000
vn 0.000000 0.000000 -1.000000
vn 0.000000 0.000000 -1.000000
vn 0.000000 0.000000 -1.000000
vn 0.000000 0.000000 -1.000000
vn 0.000000 0.000000 -1.000000
vn 0.000000 0.000000 -1.000000
vn 0.000000 0.000000 -1.000000
vn 0.000000 0.000000 -1.000000
vn 0.000000 0.000000 -1.000000
vn 0.000000 0.000000 -1.000000
vn 0.000000 0.000000 -1.000000
vn 0.000000 0.000000 -1.000000
vn 0.000000 -1.000000 0.000000
vn 0.000000 -1.000000 0.000000
vn 0.000000 -1.000000 0.000000
vn 0.000000 -1.000000 0.000000
vn 0.000000 0.000000 1.000000
vn 0.000000 0.000000 1.000000
vn 0.000000 0.000000 1.000000
vn 0.000000 0.000000 1.000000
vn 0.000000 0.000000 1.000000
vn 0.000000 0.000000 1.000000
vn 0.000000 0.000000 1.000000
vn 0.000000 0.000000 1.000000
vn 0.000000 0.000000 1.000000
vn 0.000000 0.000000 1.000000
vn 0.000000 0.000000 1.000000
vn 0.000000 0.000000 1.000000
vn 0.000000 1.000000 0.000000
vn 0.000000 1.000000 0.000000
vn 0.000000 1.000000 0.000000
vn 0.000000 1.000000 0.000000
vn 0.000000 0.000000 -1.000000
vn 0.000000 0.000000 -1.000000
vn 0.000000 0.000000 -1.000000
vn 0.000000 0.000000 -1.000000
vn 0.000000 0.000000 -1.000000
vn 0.000000 0.000000 -1.000000
vn 0.000000 0.000000 -1.000000
vn 0.000000 0.000000 -1.000000
vn 0.000000 -1.000000 0.000000
vn 0.000000 -1.000000 0.000000
vn 0.000000 -1.000000 0.000000
vn 0.000000 -1.000000 0.000000
vn 0.000000 0.000000 1.000000
vn 0.000000 0.000000 1.000000
vn 0.000000 0.000000 1.000000
vn 0.000000 0.000000 1.000000
vn 0.000000 0.000000 1.000000
vn 0.000000 0.000000 1.000000
vn 0.000000 0.000000 1.000000
vn 0.000000 0.000000 1.000000
vn 0.000000 0.000000 1.000000
vn 0.000000 0.000000 1.000000
vn 0.000000 0.000000 1.000000
vn 0.000000 0.000000 1.000000
vn 0.000000 1.000000 0.000000
vn 0.000000 1.000000 0.000000
vn 0.000000 1.000000 0.000000
vn 0.000000 1.000000 0.000000
vn 0.000000 1.000000 0.000000
vn 0.000000 1.000000 0.000000
vn 0.000000 1.000000 0.000000
vn 0.000000 1.000000 0.000000
vn -1.000000 0.000000 0.000000
vn -1.000000 0.000000 0.000000
vn -1.000000 0.000000 0.000000
vn -1.000000 0.000000 0.000000
vn 0.000000 -1.000000 0.000000
vn 0.000000 -1.000000 0.000000
vn 0.000000 -1.000000 0.000000
vn 0.000000 -1.000000 0.000000
vn -1.000000 0.000000 0.000000
vn -1.000000 0.000000 0.000000
vn -1.000000 0.000000 0.000000
vn -1.000000 0.000000 0.000000
vn 1.000000 0.000000 0.000000
vn 1.000000 0.000000 0.000000
vn 1.000000 0.000000 0.000000
vn 1.000000 0.000000 0.000000
vn -1.000000 0.000000 0.000000
vn -1.000000 0.000000 0.000000
vn -1.000000 0.000000 0.000000
vn -1.000000 0.000000 0.000000
vn 0.000000 1.000000 0.000000
vn 0.000000 1.000000 0.000000
vn 0.000000 1.000000 0.000000
vn 0.000000 1.000000 0.000000
vn 1.000000 0.000000 0.000000
vn 1.000000 0.000000 0.000000
vn 1.000000 0.000000 0.000000
vn 1.000000 0.000000 0.000000
vn -1.000000 0.000000 0.000000
vn -1.000000 0.000000 0.000000
vn -1.000000 0.000000 0.000000
vn -1.000000 0.000000 0.000000
vn 1.000000 0.000000 0.000000
vn 1.000000 0.000000 0.000000
vn 1.000000 0.000000 0.000000
vn 1.000000 0.000000 0.000000
vn 1.000000 0.000000 0.000000
vn 1.000000 0.000000 0.000000
vn 1.000000 0.000000 0.000000
vn 1.000000 0.000000 0.000000
vn 0.000000 -1.000000 0.000000
vn 0.000000 -1.000000 0.000000
vn 0.000000 -1.000000 0.000000
vn 0.000000 -1.000000 0.000000
vn 0.000000 1.000000 0.000000
vn 0.000000 1.000000 0.000000
vn 0.000000 1.000000 0.000000
vn 0.000000 1.000000 0.000000
vn 0.000000 -1.000000 0.000000
vn 0.000000 -1.000000 0.000000
vn 0.000000 -1.000000 0.000000
vn 0.000000 -1.000000 0.000000
vn 0.000000 1.000000 0.000000
vn 0.000000 1.000000 0.000000
vn 0.000000 1.000000 0.000000
vn 0.000000 1.000000 0.000000
vn 0.000000 -1.000000 0.000000
vn 0.000000 -1.000000 0.000000
vn 0.000000 -1.000000 0.000000
vn 0.000000 -1.000000 0.000000
vn 0.000000 0.000000 -1.000000
vn 0.000000 0.000000 -1.000000
vn 0.000000 0.000000 -1.000000
vn 0.000000 0.000000 -1.000000
s off
g CuadroUV__1_:Marco CuadroUV__1_:Marco1 CuadroUV__1_:initialShadingGroup CuadroUV__1_:polySurface1
usemtl initialShadingGroup
f 15/1/1 31/2/2 32/49/3 3/4/4
f 3/63/5 32/3/6 25/5/7 5/6/8
f 33/7/9 34/8/10 35/9/11 36/10/12
f 7/56/13 28/12/14 29/58/15 1/64/16
f 16/52/17 13/16/18 6/17/19 4/60/20
f 14/19/21 15/1/22 3/4/23 5/57/24
f 38/20/25 37/21/26 39/22/27 40/23/28
f 7/11/29 1/14/30 11/24/31 10/25/32
f 1/14/33 29/13/34 30/26/35 11/24/36
f 2/61/37 8/54/38 9/29/39 12/53/40
f 36/10/41 35/9/42 37/21/43 38/20/44
f 10/25/45 11/24/46 15/1/47 14/19/48
f 11/24/49 30/26/50 31/2/51 15/1/52
f 12/53/53 9/29/54 13/16/55 16/52/56
f 41/31/57 42/32/58 43/33/59 44/34/60
f 45/35/61 44/34/62 43/33/63 46/36/64
f 47/37/65 45/35/66 46/36/67 48/38/68
f 21/59/69 20/40/70 8/28/71 2/62/72
f 22/41/73 21/39/74 2/27/75 12/30/76
f 23/42/77 22/41/78 12/30/79 16/15/80
f 24/50/81 23/42/82 16/15/83 4/51/84
f 17/44/85 24/43/86 4/18/87 6/55/88
f 34/8/89 41/31/90 44/34/91 35/9/92
f 39/22/93 37/21/94 45/35/95 47/37/96
f 29/58/97 28/12/98 20/40/99 21/59/100
f 30/26/101 29/13/102 21/39/103 22/41/104
f 31/2/105 30/26/106 22/41/107 23/42/108
f 32/49/109 31/2/110 23/42/111 24/50/112
f 25/5/113 32/3/114 24/43/115 17/44/116
f 5/6/117 25/5/118 34/8/119 33/7/120
f 14/19/121 5/57/122 33/7/123 36/10/124
f 28/12/125 7/56/126 40/23/127 39/22/128
f 7/11/129 10/25/130 38/20/131 40/23/132
f 26/45/133 27/46/134 37/21/135 35/9/136
f 10/25/137 14/19/138 36/10/139 38/20/140
f 17/44/141 6/55/142 42/32/143 41/31/144
f 6/17/145 13/16/146 43/33/147 42/32/148
f 19/47/149 18/48/150 44/34/151 45/35/152
f 13/16/153 9/29/154 46/36/155 43/33/156
f 9/29/157 8/54/158 48/38/159 46/36/160
f 8/28/161 20/40/162 47/37/163 48/38/164
f 25/5/165 17/44/166 41/31/167 34/8/168
f 18/48/169 26/45/170 35/9/171 44/34/172
f 27/46/173 19/47/174 45/35/175 37/21/176
f 20/40/177 28/12/178 39/22/179 47/37/180
f 26/45/181 18/48/182 19/47/183 27/46/184
